<svg xmlns="http://www.w3.org/2000/svg" viewBox="0 0 360 80" role="img" aria-labelledby="hl-title">
  <title id="hl-title">sieve — virtual browser for AI agents</title>
  <defs>
    <linearGradient id="hlg1" x1="0%" y1="0%" x2="100%" y2="100%">
      <stop offset="0%" stop-color="#818cf8"/>
      <stop offset="100%" stop-color="#a78bfa"/>
    </linearGradient>
  </defs>

  <!-- Icon (scaled down funnel) -->
  <g transform="translate(4, 4) scale(0.56)">
    <path d="M16,28 L112,28 L80,72 L80,100 L48,100 L48,72 Z" fill="none" stroke="url(#hlg1)" stroke-width="3.5" stroke-linejoin="round" stroke-linecap="round"/>
    <line x1="34" y1="40" x2="94" y2="40" stroke="#a78bfa" stroke-width="1.5" opacity="0.5"/>
    <line x1="42" y1="52" x2="86" y2="52" stroke="#a78bfa" stroke-width="1.5" opacity="0.6"/>
    <line x1="50" y1="64" x2="78" y2="64" stroke="#a78bfa" stroke-width="1.5" opacity="0.5"/>
    <line x1="64" y1="28" x2="64" y2="72" stroke="#a78bfa" stroke-width="1.2" opacity="0.4"/>
    <circle cx="64" cy="40" r="2.5" fill="#a78bfa"/>
    <circle cx="52" cy="52" r="2.5" fill="#a78bfa"/>
    <circle cx="76" cy="52" r="2.5" fill="#a78bfa"/>
    <circle cx="64" cy="52" r="2.5" fill="#a78bfa"/>
    <circle cx="64" cy="108" r="5" fill="url(#hlg1)"/>
    <circle cx="52" cy="116" r="3.5" fill="#c4b5fd" opacity="0.7"/>
    <circle cx="76" cy="118" r="3" fill="#c4b5fd" opacity="0.6"/>
    <rect x="30" y="14" width="14" height="8" rx="2" fill="#94a3b8" opacity="0.3" transform="rotate(-6 37 18)"/>
    <rect x="56" y="10" width="18" height="8" rx="2" fill="#94a3b8" opacity="0.25" transform="rotate(4 65 14)"/>
    <rect x="84" y="14" width="12" height="8" rx="2" fill="#94a3b8" opacity="0.3"/>
  </g>

  <!-- Wordmark (white for dark backgrounds) -->
  <text x="88" y="53" font-family="-apple-system, BlinkMacSystemFont, 'Segoe UI', system-ui, sans-serif" font-size="42" font-weight="700" letter-spacing="-1" fill="#f5f3ff">sieve</text>
</svg>
