<svg xmlns="http://www.w3.org/2000/svg" viewBox="0 0 128 128" role="img" aria-labelledby="ml-title">
  <title id="ml-title">sieve</title>
  <!-- Monochrome light — white for dark backgrounds -->
  <g fill="none" stroke="#ffffff" stroke-linecap="round" stroke-linejoin="round">
    <path d="M16,28 L112,28 L80,72 L80,100 L48,100 L48,72 Z" stroke-width="3"/>
    <line x1="34" y1="40" x2="94" y2="40" stroke-width="1.5" opacity="0.5"/>
    <line x1="42" y1="52" x2="86" y2="52" stroke-width="1.5" opacity="0.6"/>
    <line x1="50" y1="64" x2="78" y2="64" stroke-width="1.5" opacity="0.5"/>
    <line x1="44" y1="30" x2="56" y2="70" stroke-width="1.2" opacity="0.35"/>
    <line x1="64" y1="28" x2="64" y2="72" stroke-width="1.2" opacity="0.4"/>
    <line x1="84" y1="30" x2="72" y2="70" stroke-width="1.2" opacity="0.35"/>
  </g>
  <g fill="#ffffff">
    <circle cx="44" cy="40" r="2.5" opacity="0.7"/>
    <circle cx="64" cy="40" r="2.5" opacity="0.8"/>
    <circle cx="84" cy="40" r="2.5" opacity="0.7"/>
    <circle cx="52" cy="52" r="2.5" opacity="0.8"/>
    <circle cx="64" cy="52" r="2.5" opacity="0.9"/>
    <circle cx="76" cy="52" r="2.5" opacity="0.8"/>
    <circle cx="64" cy="108" r="5"/>
    <circle cx="52" cy="116" r="3.5" opacity="0.6"/>
    <circle cx="76" cy="118" r="3" opacity="0.5"/>
  </g>
</svg>
